<?xml version="1.0" encoding="UTF-8" standalone="no"?>
<!DOCTYPE svg PUBLIC "-//W3C//DTD SVG 1.1//EN"
 "http://www.w3.org/Graphics/SVG/1.1/DTD/svg11.dtd">
<!-- Generated by graphviz version 2.43.0 (0)
 -->
<!-- Title: com.teragrep.pth_06.scheduler.Batch.processRange Pages: 1 -->
<svg width="665pt" height="158pt"
 viewBox="0.00 0.00 665.00 158.00" xmlns="http://www.w3.org/2000/svg" xmlns:xlink="http://www.w3.org/1999/xlink">
<g id="graph0" class="graph" transform="scale(1 1) rotate(0) translate(4 154)">
<title>com.teragrep.pth_06.scheduler.Batch.processRange</title>
<!-- Node1 -->
<g id="Node000001" class="node">
<title>Node1</title>
<g id="a_Node000001"><a xlink:title=" ">
<polygon fill="#999999" stroke="#666666" points="170,-78 0,-78 0,-48 170,-48 170,-78"/>
<text text-anchor="start" x="8" y="-66" font-family="Helvetica,sans-Serif" font-size="10.00">com.teragrep.pth_06.scheduler.</text>
<text text-anchor="middle" x="85" y="-55" font-family="Helvetica,sans-Serif" font-size="10.00">Batch.processRange</text>
</a>
</g>
</g>
<!-- Node1&#45;&gt;Node1 -->
<g id="edge5_Node000001_Node000001" class="edge">
<title>Node1&#45;&gt;Node1</title>
<g id="a_edge5_Node000001_Node000001"><a xlink:title=" ">
<path fill="none" stroke="#63b8ff" d="M44.22,-78.28C35.16,-87.41 48.75,-96 85,-96 106.52,-96 120.06,-92.97 125.61,-88.6"/>
<polygon fill="#63b8ff" stroke="#63b8ff" points="129.11,-88.33 125.78,-78.28 122.11,-88.22 129.11,-88.33"/>
</a>
</g>
</g>
<!-- Node2 -->
<g id="Node000002" class="node">
<title>Node2</title>
<g id="a_Node000002"><a xlink:href="classcom_1_1teragrep_1_1pth__06_1_1scheduler_1_1Batch.html#a961bcc848cc69ae0bb8a1143394b02ac" target="_top" xlink:title=" ">
<polygon fill="white" stroke="#666666" points="403,-126 233,-126 233,-96 403,-96 403,-126"/>
<text text-anchor="start" x="241" y="-114" font-family="Helvetica,sans-Serif" font-size="10.00">com.teragrep.pth_06.scheduler.</text>
<text text-anchor="middle" x="318" y="-103" font-family="Helvetica,sans-Serif" font-size="10.00">Batch.addSlice</text>
</a>
</g>
</g>
<!-- Node1&#45;&gt;Node2 -->
<g id="edge1_Node000001_Node000002" class="edge">
<title>Node1&#45;&gt;Node2</title>
<g id="a_edge1_Node000001_Node000002"><a xlink:title=" ">
<path fill="none" stroke="#63b8ff" d="M158.46,-78.06C182.75,-83.1 210.01,-88.77 234.99,-93.96"/>
<polygon fill="#63b8ff" stroke="#63b8ff" points="234.3,-97.39 244.8,-96 235.72,-90.54 234.3,-97.39"/>
</a>
</g>
</g>
<!-- Node5 -->
<g id="Node000005" class="node">
<title>Node5</title>
<g id="a_Node000005"><a xlink:href="classcom_1_1teragrep_1_1pth__06_1_1scheduler_1_1ArchiveBatchSliceCollection.html#a66a88238f727d70abfe56a0e15b51bac" target="_top" xlink:title=" ">
<polygon fill="white" stroke="#666666" points="430,-78 206,-78 206,-48 430,-48 430,-78"/>
<text text-anchor="start" x="214" y="-66" font-family="Helvetica,sans-Serif" font-size="10.00">com.teragrep.pth_06.scheduler.</text>
<text text-anchor="middle" x="318" y="-55" font-family="Helvetica,sans-Serif" font-size="10.00">ArchiveBatchSliceCollection.processRange</text>
</a>
</g>
</g>
<!-- Node1&#45;&gt;Node5 -->
<g id="edge4_Node000001_Node000005" class="edge">
<title>Node1&#45;&gt;Node5</title>
<g id="a_edge4_Node000001_Node000005"><a xlink:title=" ">
<path fill="none" stroke="#63b8ff" d="M170.05,-63C178.39,-63 186.98,-63 195.6,-63"/>
<polygon fill="#63b8ff" stroke="#63b8ff" points="195.74,-66.5 205.74,-63 195.74,-59.5 195.74,-66.5"/>
</a>
</g>
</g>
<!-- Node6 -->
<g id="Node000006" class="node">
<title>Node6</title>
<g id="a_Node000006"><a xlink:href="classcom_1_1teragrep_1_1pth__06_1_1scheduler_1_1KafkaBatchSliceCollection.html#a90ea5a42f2333212f3b56fc4580148e4" target="_top" xlink:title=" ">
<polygon fill="white" stroke="#666666" points="425.5,-30 210.5,-30 210.5,0 425.5,0 425.5,-30"/>
<text text-anchor="start" x="218.5" y="-18" font-family="Helvetica,sans-Serif" font-size="10.00">com.teragrep.pth_06.scheduler.</text>
<text text-anchor="middle" x="318" y="-7" font-family="Helvetica,sans-Serif" font-size="10.00">KafkaBatchSliceCollection.processRange</text>
</a>
</g>
</g>
<!-- Node1&#45;&gt;Node6 -->
<g id="edge6_Node000001_Node000006" class="edge">
<title>Node1&#45;&gt;Node6</title>
<g id="a_edge6_Node000001_Node000006"><a xlink:title=" ">
<path fill="none" stroke="#63b8ff" d="M158.46,-47.94C182.75,-42.9 210.01,-37.23 234.99,-32.04"/>
<polygon fill="#63b8ff" stroke="#63b8ff" points="235.72,-35.46 244.8,-30 234.3,-28.61 235.72,-35.46"/>
</a>
</g>
</g>
<!-- Node3 -->
<g id="Node000003" class="node">
<title>Node3</title>
<g id="a_Node000003"><a xlink:href="classcom_1_1teragrep_1_1pth__06_1_1scheduler_1_1BatchTaskQueue.html#af45361c6f8feebc3ce8ab09fb5b4494d" target="_top" xlink:title=" ">
<polygon fill="white" stroke="#666666" points="648,-150 475,-150 475,-120 648,-120 648,-150"/>
<text text-anchor="start" x="483" y="-138" font-family="Helvetica,sans-Serif" font-size="10.00">com.teragrep.pth_06.scheduler.</text>
<text text-anchor="middle" x="561.5" y="-127" font-family="Helvetica,sans-Serif" font-size="10.00">BatchTaskQueue.getQueueTime</text>
</a>
</g>
</g>
<!-- Node2&#45;&gt;Node3 -->
<g id="edge2_Node000002_Node000003" class="edge">
<title>Node2&#45;&gt;Node3</title>
<g id="a_edge2_Node000002_Node000003"><a xlink:title=" ">
<path fill="none" stroke="#63b8ff" d="M403.13,-119.36C422.92,-121.33 444.17,-123.44 464.45,-125.45"/>
<polygon fill="#63b8ff" stroke="#63b8ff" points="464.33,-128.96 474.63,-126.47 465.02,-121.99 464.33,-128.96"/>
</a>
</g>
</g>
<!-- Node4 -->
<g id="Node000004" class="node">
<title>Node4</title>
<g id="a_Node000004"><a xlink:href="classcom_1_1teragrep_1_1pth__06_1_1scheduler_1_1BatchSlice.html#a924403c9b17d1af7ed974097ba972a65" target="_top" xlink:title=" ">
<polygon fill="white" stroke="#666666" points="646.5,-102 476.5,-102 476.5,-72 646.5,-72 646.5,-102"/>
<text text-anchor="start" x="484.5" y="-90" font-family="Helvetica,sans-Serif" font-size="10.00">com.teragrep.pth_06.scheduler.</text>
<text text-anchor="middle" x="561.5" y="-79" font-family="Helvetica,sans-Serif" font-size="10.00">BatchSlice.getSize</text>
</a>
</g>
</g>
<!-- Node2&#45;&gt;Node4 -->
<g id="edge3_Node000002_Node000004" class="edge">
<title>Node2&#45;&gt;Node4</title>
<g id="a_edge3_Node000002_Node000004"><a xlink:title=" ">
<path fill="none" stroke="#63b8ff" d="M403.13,-102.64C423.48,-100.62 445.37,-98.44 466.16,-96.38"/>
<polygon fill="#63b8ff" stroke="#63b8ff" points="466.66,-99.84 476.27,-95.37 465.97,-92.88 466.66,-99.84"/>
</a>
</g>
</g>
<!-- Node7 -->
<g id="Node000007" class="node">
<title>Node7</title>
<g id="a_Node000007"><a xlink:href="classcom_1_1teragrep_1_1pth__06_1_1scheduler_1_1KafkaBatchSliceCollection.html#a18952bff484b226ccfed89f2f3f38a83" target="_top" xlink:title=" ">
<polygon fill="white" stroke="#666666" points="657,-30 466,-30 466,0 657,0 657,-30"/>
<text text-anchor="start" x="474" y="-18" font-family="Helvetica,sans-Serif" font-size="10.00">com.teragrep.pth_06.scheduler.</text>
<text text-anchor="middle" x="561.5" y="-7" font-family="Helvetica,sans-Serif" font-size="10.00">KafkaBatchSliceCollection.generate</text>
</a>
</g>
</g>
<!-- Node6&#45;&gt;Node7 -->
<g id="edge7_Node000006_Node000007" class="edge">
<title>Node6&#45;&gt;Node7</title>
<g id="a_edge7_Node000006_Node000007"><a xlink:title=" ">
<path fill="none" stroke="#63b8ff" d="M425.63,-15C435.57,-15 445.64,-15 455.56,-15"/>
<polygon fill="#63b8ff" stroke="#63b8ff" points="455.84,-18.5 465.84,-15 455.84,-11.5 455.84,-18.5"/>
</a>
</g>
</g>
</g>
</svg>
